# xmcd
# 
# Track frame offsets:
#     150
#     22932
#     43212
# 
# Disc length: 881
# 
# Revision: 0
# Processed by: cddbd v1.5.2PL0 Copyright (c) Steve Scherf et al.
# Submitted via: fre:ac v1.1beta1pre5
# 
DISCID=1c036f03
DTITLE=スチャダラパー - アクアフレッシュ
DYEAR=1996
DGENRE=J-POP
TTITLE0=アクアフレッシュ
TTITLE1=クライングドゥービーマン（パンチミックス）
TTITLE2=アクアフレッシュ(Instumental)
EXTD=YEAR: 1996/3/20
EXTT0=
EXTT1=
EXTT2=
PLAYORDER=
